<?xml version="1.0" encoding="utf-8"?>
<!-- Generator: Adobe Illustrator 18.0.0, SVG Export Plug-In . SVG Version: 6.00 Build 0)  -->
<!DOCTYPE svg PUBLIC "-//W3C//DTD SVG 1.1//EN" "http://www.w3.org/Graphics/SVG/1.1/DTD/svg11.dtd">
<svg version="1.1" id="Layer_1" xmlns="http://www.w3.org/2000/svg" xmlns:xlink="http://www.w3.org/1999/xlink" x="0px" y="0px"
	 viewBox="0 0 17.7 11.8" enable-background="new 0 0 17.7 11.8" xml:space="preserve">
<g display="none">
	<rect x="-96.7" y="-205.6" display="inline" fill="#EA5E68" width="595.3" height="621"/>
	<rect x="-96.7" y="-426.6" display="inline" fill="#D6495A" width="595.3" height="220.9"/>
</g>
<g>
	<path fill="#FFFFFF" d="M0.6,0.8h16.5c0.2,0,0.4-0.2,0.4-0.4c0-0.2-0.2-0.4-0.4-0.4H0.6C0.4,0,0.2,0.2,0.2,0.4
		C0.2,0.6,0.4,0.8,0.6,0.8z"/>
	<path fill="#FFFFFF" d="M17.3,5.5H0.4C0.2,5.5,0,5.7,0,5.9c0,0.2,0.2,0.4,0.4,0.4h16.9c0.2,0,0.4-0.2,0.4-0.4
		C17.7,5.7,17.5,5.5,17.3,5.5z"/>
	<path fill="#FFFFFF" d="M17.3,11H0.4C0.2,11,0,11.2,0,11.4c0,0.2,0.2,0.4,0.4,0.4h16.9c0.2,0,0.4-0.2,0.4-0.4
		C17.7,11.2,17.5,11,17.3,11z"/>
</g>
</svg>
